<svg xmlns="http://www.w3.org/2000/svg" xmlns:xlink="http://www.w3.org/1999/xlink" width="350" zoomAndPan="magnify" viewBox="0 0 262.5 44.999999" height="60" preserveAspectRatio="xMidYMid meet" version="1.0"><defs><g/><clipPath id="6c53ba918b"><path d="M 0 0.0429688 L 262 0.0429688 L 262 44.957031 L 0 44.957031 Z M 0 0.0429688 " clip-rule="nonzero"/></clipPath><clipPath id="7dfb889634"><rect x="0" width="262" y="0" height="45"/></clipPath></defs><g clip-path="url(#6c53ba918b)"><g transform="matrix(1, 0, 0, 1, 0, 0.000000000000003678)"><g clip-path="url(#7dfb889634)"><g fill="#000000" fill-opacity="1"><g transform="translate(0.706157, 36.455978)"><g><path d="M 26.429688 -28.519531 L 26.429688 0.765625 L 17.160156 0.765625 L 17.160156 -19.351562 L 17.925781 -19.351562 L 17.925781 -18.589844 L 16.949219 -18.589844 L 16.949219 -19.351562 L 17.710938 -19.351562 L 17.710938 0.765625 L 8.445312 0.765625 L 8.445312 -19.351562 L 9.207031 -19.351562 L 9.207031 -18.589844 L 8.230469 -18.589844 L 8.230469 -19.351562 L 8.992188 -19.351562 L 8.992188 0.765625 L -0.273438 0.765625 L -0.273438 -29.28125 L 26.429688 -29.28125 Z M 24.902344 -28.519531 L 25.667969 -28.519531 L 25.667969 -27.753906 L 0.488281 -27.753906 L 0.488281 -28.519531 L 1.253906 -28.519531 L 1.253906 0 L 0.488281 0 L 0.488281 -0.765625 L 8.230469 -0.765625 L 8.230469 0 L 7.464844 0 L 7.464844 -20.117188 L 9.972656 -20.117188 L 9.972656 0 L 9.207031 0 L 9.207031 -0.765625 L 16.949219 -0.765625 L 16.949219 0 L 16.183594 0 L 16.183594 -20.117188 L 18.691406 -20.117188 L 18.691406 0 L 17.925781 0 L 17.925781 -0.765625 L 25.667969 -0.765625 L 25.667969 0 L 24.902344 0 Z M 24.902344 -28.519531 "/></g></g></g><g fill="#000000" fill-opacity="1"><g transform="translate(26.853918, 36.455978)"><g><path d="M -0.273438 0 L -0.273438 -29.28125 L 8.992188 -29.28125 L 8.992188 -9.167969 L 8.230469 -9.167969 L 8.230469 -9.929688 L 9.207031 -9.929688 L 9.207031 -9.167969 L 8.445312 -9.167969 L 8.445312 -29.28125 L 17.710938 -29.28125 L 17.710938 0.765625 L -0.273438 0.765625 Z M 1.253906 0 L 0.488281 0 L 0.488281 -0.765625 L 16.949219 -0.765625 L 16.949219 0 L 16.183594 0 L 16.183594 -28.519531 L 16.949219 -28.519531 L 16.949219 -27.753906 L 9.207031 -27.753906 L 9.207031 -28.519531 L 9.972656 -28.519531 L 9.972656 -8.402344 L 7.464844 -8.402344 L 7.464844 -28.519531 L 8.230469 -28.519531 L 8.230469 -27.753906 L 0.488281 -27.753906 L 0.488281 -28.519531 L 1.253906 -28.519531 Z M 1.253906 0 "/></g></g></g><g fill="#000000" fill-opacity="1"><g transform="translate(44.285765, 36.455978)"><g><path d="M 16.539062 0.765625 L -0.273438 0.765625 L -0.273438 -29.28125 L 8.992188 -29.28125 L 8.992188 -5.949219 L 8.230469 -5.949219 L 8.230469 -6.710938 L 17.304688 -6.710938 L 17.304688 0.765625 Z M 16.539062 -0.765625 L 16.539062 0 L 15.777344 0 L 15.777344 -5.949219 L 16.539062 -5.949219 L 16.539062 -5.183594 L 7.464844 -5.183594 L 7.464844 -28.519531 L 8.230469 -28.519531 L 8.230469 -27.753906 L 0.488281 -27.753906 L 0.488281 -28.519531 L 1.253906 -28.519531 L 1.253906 0 L 0.488281 0 L 0.488281 -0.765625 Z M 16.539062 -0.765625 "/></g></g></g><g fill="#000000" fill-opacity="1"><g transform="translate(61.310318, 36.455978)"><g><path d="M 17.753906 -28.558594 L 17.753906 -20.054688 L 12.589844 -20.054688 L 12.589844 -20.820312 L 13.351562 -20.820312 L 13.351562 0.765625 L 4.085938 0.765625 L 4.085938 -20.820312 L 4.847656 -20.820312 L 4.847656 -20.054688 L -0.273438 -20.054688 L -0.273438 -29.324219 L 17.753906 -29.324219 Z M 16.226562 -28.558594 L 16.988281 -28.558594 L 16.988281 -27.796875 L 0.488281 -27.796875 L 0.488281 -28.558594 L 1.253906 -28.558594 L 1.253906 -20.820312 L 0.488281 -20.820312 L 0.488281 -21.582031 L 5.613281 -21.582031 L 5.613281 0 L 4.847656 0 L 4.847656 -0.765625 L 12.589844 -0.765625 L 12.589844 0 L 11.824219 0 L 11.824219 -21.582031 L 16.988281 -21.582031 L 16.988281 -20.820312 L 16.226562 -20.820312 Z M 16.226562 -28.558594 "/></g></g></g><g fill="#000000" fill-opacity="1"><g transform="translate(78.782893, 36.455978)"><g><path d="M -0.273438 -29.28125 L 8.992188 -29.28125 L 8.992188 0.765625 L -0.273438 0.765625 Z M 1.253906 -27.753906 L 1.253906 -0.765625 L 7.464844 -0.765625 L 7.464844 -27.753906 Z M 1.253906 -27.753906 "/></g></g></g><g fill="#000000" fill-opacity="1"><g transform="translate(87.498806, 36.455978)"><g><path d="M 9.207031 -29.28125 L 17.710938 -29.28125 L 17.710938 -8.894531 L 9.855469 0.765625 L 7.582031 0.765625 L -0.273438 -8.894531 L -0.273438 -29.28125 L 8.992188 -29.28125 L 8.992188 -9.167969 L 8.230469 -9.167969 L 8.230469 -9.929688 L 9.207031 -9.929688 L 9.207031 -9.167969 L 8.445312 -9.167969 L 8.445312 -29.28125 Z M 9.207031 -27.753906 L 9.207031 -28.519531 L 9.972656 -28.519531 L 9.972656 -8.402344 L 7.464844 -8.402344 L 7.464844 -28.519531 L 8.230469 -28.519531 L 8.230469 -27.753906 L 0.488281 -27.753906 L 0.488281 -28.519531 L 1.253906 -28.519531 L 1.253906 -9.167969 L 0.488281 -9.167969 L 1.082031 -9.648438 L 8.539062 -0.480469 L 7.945312 0 L 7.945312 -0.765625 L 9.492188 -0.765625 L 9.492188 0 L 8.898438 -0.480469 L 16.355469 -9.648438 L 16.949219 -9.167969 L 16.183594 -9.167969 L 16.183594 -28.519531 L 16.949219 -28.519531 L 16.949219 -27.753906 Z M 9.207031 -27.753906 "/></g></g></g><g fill="#000000" fill-opacity="1"><g transform="translate(104.930653, 36.455978)"><g><path d="M 16.949219 -18.792969 L 8.921875 -18.792969 L 8.921875 -19.554688 L 9.6875 -19.554688 L 9.6875 -18.578125 L 8.921875 -18.578125 L 8.921875 -19.34375 L 14.859375 -19.34375 L 14.859375 -9.21875 L 8.921875 -9.21875 L 8.921875 -9.980469 L 9.6875 -9.980469 L 9.6875 -9.003906 L 8.921875 -9.003906 L 8.921875 -9.769531 L 17.710938 -9.769531 L 17.710938 0.765625 L -0.273438 0.765625 L -0.273438 -29.28125 L 17.710938 -29.28125 L 17.710938 -18.792969 Z M 16.949219 -20.320312 L 16.949219 -19.554688 L 16.183594 -19.554688 L 16.183594 -28.519531 L 16.949219 -28.519531 L 16.949219 -27.753906 L 0.488281 -27.753906 L 0.488281 -28.519531 L 1.253906 -28.519531 L 1.253906 0 L 0.488281 0 L 0.488281 -0.765625 L 16.949219 -0.765625 L 16.949219 0 L 16.183594 0 L 16.183594 -9.003906 L 16.949219 -9.003906 L 16.949219 -8.238281 L 8.160156 -8.238281 L 8.160156 -10.746094 L 14.097656 -10.746094 L 14.097656 -9.980469 L 13.332031 -9.980469 L 13.332031 -18.578125 L 14.097656 -18.578125 L 14.097656 -17.8125 L 8.160156 -17.8125 L 8.160156 -20.320312 Z M 16.949219 -20.320312 "/></g></g></g><g fill="#000000" fill-opacity="1"><g transform="translate(122.3625, 36.455978)"><g><path d="M 17.710938 -28.519531 L 17.710938 -9.09375 L 14.421875 -9.09375 L 14.421875 -9.859375 L 15.1875 -9.890625 L 15.226562 -8.914062 L 14.464844 -8.882812 L 14.464844 -9.644531 L 17.710938 -9.644531 L 17.710938 0.765625 L 8.445312 0.765625 L 8.445312 -5.378906 L 9.207031 -5.378906 L 9.207031 -4.613281 L 8.230469 -4.613281 L 8.230469 -5.378906 L 8.992188 -5.378906 L 8.992188 0.765625 L -0.273438 0.765625 L -0.273438 -29.28125 L 17.710938 -29.28125 Z M 16.183594 -28.519531 L 16.949219 -28.519531 L 16.949219 -27.753906 L 0.488281 -27.753906 L 0.488281 -28.519531 L 1.253906 -28.519531 L 1.253906 0 L 0.488281 0 L 0.488281 -0.765625 L 8.230469 -0.765625 L 8.230469 0 L 7.464844 0 L 7.464844 -6.140625 L 9.972656 -6.140625 L 9.972656 0 L 9.207031 0 L 9.207031 -0.765625 L 16.949219 -0.765625 L 16.949219 0 L 16.183594 0 L 16.183594 -8.882812 L 16.949219 -8.882812 L 16.949219 -8.117188 L 13.730469 -8.117188 L 13.625 -10.625 L 16.949219 -10.625 L 16.949219 -9.859375 L 16.183594 -9.859375 Z M 8.445312 -16.460938 L 8.445312 -23.425781 L 9.207031 -23.425781 L 9.207031 -22.664062 L 8.230469 -22.664062 L 8.230469 -23.425781 L 8.992188 -23.425781 L 8.992188 -16.460938 L 8.230469 -16.460938 L 8.230469 -17.222656 L 9.207031 -17.222656 L 9.207031 -16.460938 Z M 9.972656 -15.695312 L 7.464844 -15.695312 L 7.464844 -24.191406 L 9.972656 -24.191406 Z M 9.972656 -15.695312 "/></g></g></g><g fill="#000000" fill-opacity="1"><g transform="translate(139.794347, 36.455978)"><g><path d="M 16.949219 -18.875 L 8.636719 -18.875 L 8.636719 -19.636719 L 9.402344 -19.636719 L 9.402344 -18.660156 L 8.636719 -18.660156 L 8.636719 -19.421875 L 17.710938 -19.421875 L 17.710938 0.765625 L -0.273438 0.765625 L -0.273438 -9.644531 L 8.636719 -9.644531 L 8.636719 -8.882812 L 7.875 -8.882812 L 7.875 -9.859375 L 8.636719 -9.859375 L 8.636719 -9.09375 L -0.273438 -9.09375 L -0.273438 -29.28125 L 17.710938 -29.28125 L 17.710938 -18.875 Z M 16.949219 -20.402344 L 16.949219 -19.636719 L 16.183594 -19.636719 L 16.183594 -28.519531 L 16.949219 -28.519531 L 16.949219 -27.753906 L 0.488281 -27.753906 L 0.488281 -28.519531 L 1.253906 -28.519531 L 1.253906 -9.859375 L 0.488281 -9.859375 L 0.488281 -10.625 L 9.402344 -10.625 L 9.402344 -8.117188 L 0.488281 -8.117188 L 0.488281 -8.882812 L 1.253906 -8.882812 L 1.253906 0 L 0.488281 0 L 0.488281 -0.765625 L 16.949219 -0.765625 L 16.949219 0 L 16.183594 0 L 16.183594 -18.660156 L 16.949219 -18.660156 L 16.949219 -17.894531 L 7.875 -17.894531 L 7.875 -20.402344 Z M 16.949219 -20.402344 "/></g></g></g><g fill="#000000" fill-opacity="1"><g transform="translate(157.226194, 36.455978)"><g><path d="M 0.488281 -29.28125 L 17.710938 -29.28125 L 17.710938 0.765625 L -0.273438 0.765625 L -0.273438 -29.28125 Z M 0.488281 -27.753906 L 0.488281 -28.519531 L 1.253906 -28.519531 L 1.253906 0 L 0.488281 0 L 0.488281 -0.765625 L 16.949219 -0.765625 L 16.949219 0 L 16.183594 0 L 16.183594 -28.519531 L 16.949219 -28.519531 L 16.949219 -27.753906 Z M 8.445312 -8.800781 L 8.445312 -19.351562 L 9.207031 -19.351562 L 9.207031 -18.589844 L 8.230469 -18.589844 L 8.230469 -19.351562 L 8.992188 -19.351562 L 8.992188 -8.800781 L 8.230469 -8.800781 L 8.230469 -9.5625 L 9.207031 -9.5625 L 9.207031 -8.800781 Z M 9.972656 -8.035156 L 7.464844 -8.035156 L 7.464844 -20.117188 L 9.972656 -20.117188 Z M 9.972656 -8.035156 "/></g></g></g><g fill="#000000" fill-opacity="1"><g transform="translate(174.658041, 36.455978)"><g/></g></g><g fill="#000000" fill-opacity="1"><g transform="translate(182.803772, 36.455978)"><g><path d="M 0.488281 -29.28125 L 17.710938 -29.28125 L 17.710938 0.765625 L 8.445312 0.765625 L 8.445312 -19.351562 L 9.207031 -19.351562 L 9.207031 -18.589844 L 8.230469 -18.589844 L 8.230469 -19.351562 L 8.992188 -19.351562 L 8.992188 0.765625 L -0.273438 0.765625 L -0.273438 -29.28125 Z M 0.488281 -27.753906 L 0.488281 -28.519531 L 1.253906 -28.519531 L 1.253906 0 L 0.488281 0 L 0.488281 -0.765625 L 8.230469 -0.765625 L 8.230469 0 L 7.464844 0 L 7.464844 -20.117188 L 9.972656 -20.117188 L 9.972656 0 L 9.207031 0 L 9.207031 -0.765625 L 16.949219 -0.765625 L 16.949219 0 L 16.183594 0 L 16.183594 -28.519531 L 16.949219 -28.519531 L 16.949219 -27.753906 Z M 0.488281 -27.753906 "/></g></g></g><g fill="#000000" fill-opacity="1"><g transform="translate(200.235619, 36.455978)"><g><path d="M 16.949219 -18.792969 L 8.921875 -18.792969 L 8.921875 -19.554688 L 9.6875 -19.554688 L 9.6875 -18.578125 L 8.921875 -18.578125 L 8.921875 -19.34375 L 14.859375 -19.34375 L 14.859375 -9.21875 L 8.921875 -9.21875 L 8.921875 -9.980469 L 9.6875 -9.980469 L 9.6875 -9.003906 L 8.921875 -9.003906 L 8.921875 -9.769531 L 17.710938 -9.769531 L 17.710938 0.765625 L -0.273438 0.765625 L -0.273438 -29.28125 L 17.710938 -29.28125 L 17.710938 -18.792969 Z M 16.949219 -20.320312 L 16.949219 -19.554688 L 16.183594 -19.554688 L 16.183594 -28.519531 L 16.949219 -28.519531 L 16.949219 -27.753906 L 0.488281 -27.753906 L 0.488281 -28.519531 L 1.253906 -28.519531 L 1.253906 0 L 0.488281 0 L 0.488281 -0.765625 L 16.949219 -0.765625 L 16.949219 0 L 16.183594 0 L 16.183594 -9.003906 L 16.949219 -9.003906 L 16.949219 -8.238281 L 8.160156 -8.238281 L 8.160156 -10.746094 L 14.097656 -10.746094 L 14.097656 -9.980469 L 13.332031 -9.980469 L 13.332031 -18.578125 L 14.097656 -18.578125 L 14.097656 -17.8125 L 8.160156 -17.8125 L 8.160156 -20.320312 Z M 16.949219 -20.320312 "/></g></g></g><g fill="#000000" fill-opacity="1"><g transform="translate(217.667466, 36.455978)"><g><path d="M 25.667969 0.765625 L -0.273438 0.765625 L -0.273438 -29.28125 L 8.992188 -29.28125 L 8.992188 -9.167969 L 8.230469 -9.167969 L 8.230469 -9.929688 L 9.207031 -9.929688 L 9.207031 -9.167969 L 8.445312 -9.167969 L 8.445312 -29.28125 L 17.710938 -29.28125 L 17.710938 -9.167969 L 16.949219 -9.167969 L 16.949219 -9.929688 L 17.925781 -9.929688 L 17.925781 -9.167969 L 17.160156 -9.167969 L 17.160156 -29.28125 L 26.429688 -29.28125 L 26.429688 0.765625 Z M 25.667969 -0.765625 L 25.667969 0 L 24.902344 0 L 24.902344 -28.519531 L 25.667969 -28.519531 L 25.667969 -27.753906 L 17.925781 -27.753906 L 17.925781 -28.519531 L 18.691406 -28.519531 L 18.691406 -8.402344 L 16.183594 -8.402344 L 16.183594 -28.519531 L 16.949219 -28.519531 L 16.949219 -27.753906 L 9.207031 -27.753906 L 9.207031 -28.519531 L 9.972656 -28.519531 L 9.972656 -8.402344 L 7.464844 -8.402344 L 7.464844 -28.519531 L 8.230469 -28.519531 L 8.230469 -27.753906 L 0.488281 -27.753906 L 0.488281 -28.519531 L 1.253906 -28.519531 L 1.253906 0 L 0.488281 0 L 0.488281 -0.765625 Z M 25.667969 -0.765625 "/></g></g></g><g fill="#000000" fill-opacity="1"><g transform="translate(243.815227, 36.455978)"><g><path d="M 16.949219 -18.875 L 8.636719 -18.875 L 8.636719 -19.636719 L 9.402344 -19.636719 L 9.402344 -18.660156 L 8.636719 -18.660156 L 8.636719 -19.421875 L 17.710938 -19.421875 L 17.710938 0.765625 L -0.273438 0.765625 L -0.273438 -9.644531 L 8.636719 -9.644531 L 8.636719 -8.882812 L 7.875 -8.882812 L 7.875 -9.859375 L 8.636719 -9.859375 L 8.636719 -9.09375 L -0.273438 -9.09375 L -0.273438 -29.28125 L 17.710938 -29.28125 L 17.710938 -18.875 Z M 16.949219 -20.402344 L 16.949219 -19.636719 L 16.183594 -19.636719 L 16.183594 -28.519531 L 16.949219 -28.519531 L 16.949219 -27.753906 L 0.488281 -27.753906 L 0.488281 -28.519531 L 1.253906 -28.519531 L 1.253906 -9.859375 L 0.488281 -9.859375 L 0.488281 -10.625 L 9.402344 -10.625 L 9.402344 -8.117188 L 0.488281 -8.117188 L 0.488281 -8.882812 L 1.253906 -8.882812 L 1.253906 0 L 0.488281 0 L 0.488281 -0.765625 L 16.949219 -0.765625 L 16.949219 0 L 16.183594 0 L 16.183594 -18.660156 L 16.949219 -18.660156 L 16.949219 -17.894531 L 7.875 -17.894531 L 7.875 -20.402344 Z M 16.949219 -20.402344 "/></g></g></g></g></g></g></svg>